<svg id="Layer_1" data-name="Layer 1" xmlns="http://www.w3.org/2000/svg" viewBox="0 0 60.16 38.18"><circle cx="21.73" cy="4.66" r="4.49" fill="#231f20" stroke="#231f20" stroke-miterlimit="10" stroke-width="0.33"/><circle cx="3.53" cy="22.54" r="3.4" fill="#231f20" stroke="#231f20" stroke-miterlimit="10" stroke-width="0.25"/><path d="M279.68,336.81s4.52,7.74,9.74.84S302.64,339,302.64,339" transform="translate(-268.41 -324.12)" fill="#fff"/><path d="M278.07,337.75c1.74,2.94,5.21,5.56,8.76,4.28a8.37,8.37,0,0,0,3.52-2.59,7.19,7.19,0,0,1,2.71-2.43c1.74-.68,3.63,0,5.2.95a12.15,12.15,0,0,1,3.06,2.33c1.68,1.71,4.31-.92,2.64-2.63a14.87,14.87,0,0,0-8.68-4.58,7.91,7.91,0,0,0-6.75,2.73c-.84,1-1.57,2.18-2.81,2.68a2.13,2.13,0,0,1-1.92-.13,6.68,6.68,0,0,1-1.94-1.67l-.15-.18c-.18-.22.18.24,0,0l-.23-.33c-.08-.11-.16-.23-.23-.35-1.21-2.06-4.43-.19-3.21,1.88Z" transform="translate(-268.41 -324.12)" fill="#231f20"/><path d="M292.38,337.07s5.07,7.5,0,12" transform="translate(-268.41 -324.12)" fill="#fff"/><path d="M290,338.47a10.59,10.59,0,0,1,.66,1.12c.1.2.2.4.29.6l.16.34c.23.52-.26-.64-.08-.19s.39,1.05.54,1.59a8.52,8.52,0,0,1,.2.84c0,.16.06.32.09.47s-.09-.79,0-.12c0,.32,0,.65,0,1,0,.15,0,.29,0,.43-.05.67.07-.31,0-.11s-.11.61-.2.91-.15.36-.2.55c.07-.28.26-.55,0-.12-.07.13-.14.27-.22.4s-.59.65,0,.08c-.28.28-.52.59-.82.86a2.8,2.8,0,0,0,0,3.93,2.84,2.84,0,0,0,3.94,0c2.89-2.62,3.55-6.52,2.66-10.19a16.38,16.38,0,0,0-2.23-5.17,2.79,2.79,0,1,0-4.81,2.81Z" transform="translate(-268.41 -324.12)" fill="#231f20"/><path d="M293.29,349.57s-7,9.17,4.74,7.81" transform="translate(-268.41 -324.12)" fill="#fff"/><path d="M291.89,348.75a12.74,12.74,0,0,0-1.86,3.49,6.3,6.3,0,0,0-.32,3.3,4.08,4.08,0,0,0,2.23,2.83A11.1,11.1,0,0,0,298,359a1.67,1.67,0,0,0,1.63-1.63c0-.8-.72-1.73-1.63-1.62a16.83,16.83,0,0,1-2.84.11l-.55,0c-.34,0,.35.06.09,0l-.26,0a6.17,6.17,0,0,1-.87-.23c-.07,0-.34-.14,0,0s.05,0,0,0l-.33-.18-.12-.08c-.18-.1.35.3.16.12l-.24-.23s0-.08-.09-.1.27.39.14.18l-.15-.26c-.19-.31.12.4,0,.1,0-.09-.06-.18-.08-.28l0-.12c-.07-.29.06.22,0,.24a1.62,1.62,0,0,0,0-.3c0-.2,0-.39,0-.59s-.08.51,0,.23c0,0,0-.09,0-.13s0-.21.07-.32.11-.4.17-.6.26-.49.23-.58-.21.46-.09.2l.06-.13.13-.28q.26-.51.54-1a12.24,12.24,0,0,1,.71-1.06,1.64,1.64,0,0,0-.59-2.23,1.67,1.67,0,0,0-2.22.59Z" transform="translate(-268.41 -324.12)" fill="#231f20"/><path d="M291.53,349.21s-7.95-5.66-14.06,3" transform="translate(-268.41 -324.12)" fill="#fff"/><path d="M292.57,347.43a12,12,0,0,0-3.69-1.65,11.3,11.3,0,0,0-8.29.81,14.36,14.36,0,0,0-4.9,4.56,2.07,2.07,0,0,0,.74,2.82,2.11,2.11,0,0,0,2.83-.74,13.72,13.72,0,0,1,2.07-2.22c.19-.15.2-.17,0,0l.31-.22c.2-.14.4-.27.61-.39l.54-.29c.1-.05.67-.27.19-.1a10.53,10.53,0,0,1,1.21-.37l.45-.09c.23,0,.19,0-.11,0l.29,0a9.32,9.32,0,0,1,1.06,0l.47,0c.17,0,.74,0,.11,0a5.87,5.87,0,0,1,1.78.43l.71.26c.34.12-.52-.25-.05,0l.33.15a8.14,8.14,0,0,1,1.22.69,2.07,2.07,0,0,0,2.82-.74,2.11,2.11,0,0,0-.74-2.82Z" transform="translate(-268.41 -324.12)" fill="#231f20"/><text transform="translate(37.26 33.4)" font-size="12" fill="#8dc63f" font-family="Avenir-Roman, Avenir">UCL</text></svg>